<?xml version="1.0" standalone="no"?><!DOCTYPE svg PUBLIC "-//W3C//DTD SVG 1.1//EN" "http://www.w3.org/Graphics/SVG/1.1/DTD/svg11.dtd"><svg class="icon" width="48px" height="48.00px" viewBox="0 0 1024 1024" version="1.1" xmlns="http://www.w3.org/2000/svg"><path d="M244.7 384.2c-0.2-0.7-0.4-1.4-0.7-2.2 0.2 0.7 0.4 1.4 0.7 2.2zM381.2 683c-94.1-104.5-152.9-211-146.6-271C77.3 766.7 7.8 955.7 26 979c17.8 22.7 205.2-21.4 562.3-132.3-57.8-22.8-132.4-81.3-204-160.2l0.1 0.1c-1.1-1.2-2.1-2.4-3.2-3.6z" fill="#FCD869" /><path d="M588.3 846.7C231.2 957.6 43.8 1001.7 26 979 7.8 955.7 77.3 766.7 234.6 412c1.1-10.9 4.4-20.3 10.1-27.8-0.2-0.7-0.4-1.4-0.7-2.2C66 779.3-13.3 990.3 6 1015c19.3 24.7 239.3-29.7 660-163l-2.7-1.5c-18.2 10.4-44.2 8.3-75-3.8z" fill="#E2C05A" /><path d="M493.7 680.8c-7.9 5.1-18.4 3.1-23.9-4.5s-4.1-18.2 3.2-24.1c36.1-26.2 78.2-42.1 121.9-46.7-1-1.4-2.1-2.8-3.2-4.2-61.1-67.2-124.3-119.6-177.4-147.7-10.4 28.5-25.3 55.5-44.3 79.8-6.1 7.2-16.9 8.3-24.3 2.5-7.5-5.8-9-16.5-3.5-24.2 17.6-22.5 30.8-47.1 39.9-72.6-32.9-11.9-59.8-11.6-77 3.9-40.5 36.5-2.9 135.9 79.4 243.5 71.6 78.9 146.2 137.3 204 160.2 30.8 12.2 56.7 14.2 74.9 3.9 2.8-1.6 5.4-3.4 7.8-5.6 35.7-32.1 10.7-113-51.9-205.4-44.9 0.3-88.9 14.5-125.6 41.2z" fill="#CC5D21" /><path d="M591.6 601.4s0.1 0 0 0c-0.1-0.1-0.2-0.3-0.3-0.5-1.8-2.3-3.6-4.6-5.4-7l-0.9-1.2c-1.5-1.9-3-3.9-4.6-5.8-0.6-0.8-1.2-1.5-1.8-2.3-1.3-1.6-2.6-3.3-4-4.9-0.6-0.8-1.2-1.5-1.9-2.3-1.5-1.9-3.1-3.8-4.7-5.7-0.4-0.5-0.8-0.9-1.2-1.4-1.9-2.3-3.9-4.7-5.9-7-0.5-0.6-1.1-1.2-1.6-1.9-1.5-1.7-3-3.5-4.5-5.2l-2.1-2.4c-1.4-1.7-2.9-3.3-4.4-5-0.6-0.7-1.3-1.4-1.9-2.2-2.1-2.3-4.2-4.7-6.3-7C500.8 495.8 460.2 458 422 429c-2.2 8.3-4.8 16.6-7.8 24.7 53.1 28 116.4 80.4 177.4 147.7zM234.6 412c-6.3 59.9 52.5 166.5 146.6 271 1.1 1.2 2.1 2.4 3.2 3.5l-0.1-0.1C302.1 578.9 264.5 479.5 305 443c17.2-15.5 44.1-15.8 77-3.9 3.7-10.5 6.7-21.3 9-32.1-61.2-40.1-113.2-53.8-140.5-29.2-2.2 1.9-4.1 4.1-5.8 6.4-5.7 7.5-9 16.9-10.1 27.8z" fill="#B34F19" /><path d="M469.8 676.3c5.5 7.6 16 9.6 23.9 4.5 36.7-26.7 80.7-40.9 125.5-41.3 11.8-0.1 23.6 0.8 35.5 2.6 56.6 9 107.4 40.1 141.1 86.5 5.9 7.3 16.5 8.7 24.1 3.2 7.6-5.5 9.6-16 4.5-23.9-39.2-54-98.3-90.2-164.2-100.6-21.8-3.5-43.7-4-65.3-1.7-43.7 4.5-85.8 20.4-121.9 46.7-7.4 5.8-8.8 16.4-3.2 24z" fill="#4080FF" /><path d="M977.5 989.7c-69.6-61.2-156.1-99.9-248.1-111.1-9.4-0.8-17.8 6.1-19 15.5-1.2 9.4 5.3 18 14.7 19.6 85 10.3 164.8 46 229.1 102.5 7.4 6.1 18.2 5.2 24.5-2 6.3-7.1 5.7-17.9-1.2-24.5z" fill="#EB7FBD" /><path d="M342.1 511.7c-5.5 7.7-4 18.4 3.5 24.2 7.5 5.8 18.2 4.7 24.3-2.5 19-24.4 33.9-51.3 44.3-79.8 3-8.1 5.6-16.3 7.8-24.7 9.6-35.9 12.4-73.7 7.8-111.4-9.5-77-49.1-147.2-110.3-195-7.7-5.5-18.4-4-24.2 3.5-5.8 7.5-4.7 18.2 2.5 24.3C377.9 213.1 410.9 313.8 391 407a264.5 264.5 0 0 1-9 32.1c-9.1 25.6-22.3 50.1-39.9 72.6z" fill="#F35269" /><path d="M529 303.8c-5.9 2.2-10.2 7.3-11.3 13.6l-21.8 126.3c-1.1 6.2 1.2 12.5 6.1 16.6 4.8 4 11.5 5.2 17.4 3 5.9-2.2 10.2-7.3 11.3-13.6l21.8-126.3c1.1-6.2-1.2-12.5-6.1-16.6-4.8-4-11.5-5.2-17.4-3z" fill="#F3BE31" /><path d="M856.7 332.3l33.9 33.9c6.2 6.2 16.4 6.2 22.6 0l33.9-33.9c6.2-6.2 6.2-16.4 0-22.6l-33.9-33.9c-6.2-6.2-16.4-6.2-22.6 0l-33.9 33.9c-6.2 6.2-6.2 16.4 0 22.6zM164 238h32c8.8 0 16-7.2 16-16v-32c0-8.8-7.2-16-16-16h-32c-8.8 0-16 7.2-16 16v32c0 8.8 7.2 16 16 16z" fill="#4080FF" /><path d="M83.3 370.6c3.7 8 13.3 11.5 21.3 7.7l29-13.5c8-3.7 11.5-13.3 7.7-21.3l-13.5-29c-3.7-8-13.3-11.5-21.3-7.7l-29 13.5c-8 3.7-11.5 13.3-7.7 21.3l13.5 29zM645.2 96.5c6.2 6.2 16.4 6.2 22.6 0l22.6-22.6c6.2-6.2 6.2-16.4 0-22.6l-22.6-22.6c-6.2-6.2-16.4-6.2-22.6 0l-22.6 22.6c-6.2 6.2-6.2 16.4 0 22.6l22.6 22.6z" fill="#EB7DBC" /><path d="M850 129h24c8.8 0 16-7.2 16-16V89c0-8.8-7.2-16-16-16h-24c-8.8 0-16 7.2-16 16v24c0 8.8 7.2 16 16 16zM918 774h-40c-8.8 0-16 7.2-16 16v40c0 8.8 7.2 16 16 16h40c8.8 0 16-7.2 16-16v-40c0-8.8-7.2-16-16-16z" fill="#F35269" /><path d="M768 459h24c8.8 0 16-7.2 16-16v-24c0-8.8-7.2-16-16-16h-24c-8.8 0-16 7.2-16 16v24c0 8.8 7.2 16 16 16z" fill="#EB7DBC" /><path d="M690 222.4l-4.4 8.9c-2.5 4.9-9 9.7-14.6 10.5l-9.9 1.4c-10.9 1.6-13.5 9.1-5.5 16.8l7.2 6.9c4 3.8 6.5 11.5 5.6 16.9l-1.7 9.7c-1.9 10.7 4.6 15.5 14.4 10.4l8.8-4.6c4.9-2.6 13-2.6 18 0l8.8 4.6c9.7 5.1 16.3 0.5 14.4-10.4l-1.7-9.7c-0.9-5.4 1.5-13.1 5.6-16.9l7.2-6.9c7.9-7.6 5.5-15.2-5.5-16.8l-9.9-1.4c-5.5-0.8-12.1-5.5-14.6-10.5l-4.4-8.9c-4.8-9.8-12.8-9.9-17.8 0zM842.8 601.9c5 4.8 8.2 14.4 7 21.2l-2.1 12.2c-2.3 13.5 5.7 19.4 18.1 13l11.1-5.8c6.1-3.2 16.3-3.2 22.5 0l11.1 5.8c12.2 6.4 20.4 0.6 18.1-13l-2.1-12.2c-1.2-6.8 1.9-16.4 7-21.2l8.9-8.6c9.9-9.5 6.9-19.1-6.9-21l-12.4-1.8c-6.9-1-15.1-6.9-18.2-13.1l-5.5-11.1c-6.1-12.2-16.2-12.4-22.3 0l-5.5 11.1c-3.1 6.2-11.3 12.1-18.2 13.1l-12.4 1.8c-13.6 2-16.9 11.4-6.9 21l8.7 8.6zM414.7 162.6l15 0.6c8.3 0.4 18.9 6.4 23.4 13.5l8 12.6c8.9 13.9 20.9 12.9 26.6-2.7l5.1-14c2.9-7.8 11.8-15.9 20-17.9l14.5-3.6c16-4 18.6-15.7 5.5-26l-11.8-9.3c-6.5-5.2-11.6-16.2-11.1-24.6l0.9-14.9c1-16.4-9.4-22.6-23.2-13.4l-12.4 8.2c-6.9 4.6-19 5.9-26.8 2.7l-13.9-5.6c-15.3-6.1-24.4 1.7-19.8 17.8l4.1 14.4c2.3 8-0.2 19.9-5.5 26.3l-9.5 11.4c-10.6 12.7-5.8 23.7 10.9 24.5z" fill="#F3BE31" /></svg>