<?xml version="1.0" standalone="no"?><!DOCTYPE svg PUBLIC "-//W3C//DTD SVG 1.1//EN" "http://www.w3.org/Graphics/SVG/1.1/DTD/svg11.dtd"><svg class="icon" width="48px" height="48.00px" viewBox="0 0 1024 1024" version="1.1" xmlns="http://www.w3.org/2000/svg"><path d="M810 616.3l-94.9 95c-3.5 0.7-18.5 3.5-25.7-3.8-8.2-8.4-4.1-27.3-4.1-27.3l-1.6-1.5L834 528.4c14.8-14.7 14.8-38.7 0-53.5-14.9-14.9-38.6-14.8-53.4 0L628.5 627l-1-0.9s-22.3 3.7-27.2-5.6c-4.5-8.6-0.1-30.7 0.6-34l191.2-191.2c14.7-14.7 14.8-38.7 0-53.5-14.9-14.9-38.6-14.8-53.4 0L543.5 537.1l-0.4-0.3s-17.5 2.5-24.8-4.6c-7.3-7.2-3.8-23.4-3.8-23.4h-0.4l156.2-156.3c14.8-14.8 14.8-38.7 0-53.5-14.9-14.9-38.7-14.8-53.4 0l-207 207.2-3.7-0.1s-12.8 13.9-20.7 14.4c-8 0.5-15.3-12.4-15.3-12.4l-8.4-75.8v-2.7c0-20.8-16.9-37.8-37.8-37.8-18 0-33 12.4-36.8 29.2h-0.2l-24.8 162.9-13.7 128.9-39.1 49.4s-4.9 4.9-4.8 12.3c0.1 7.2 5.3 14.7 5.3 14.7l211 214.9s5 3.4 13.1 2.9 16-4.9 16-4.9 24.8-28.4 38.8-36c14.1-7.6 20.9 0.7 67.6-22.9 46.7-23.7 88.2-55.9 88.2-55.9l1.7-1.7c2.5-1.6 4.8-3.4 7-5.6l210.1-210.2c14.8-14.6 14.8-38.5 0-53.3-14.9-15.1-38.7-15-53.4-0.2z" fill="#FFC56E" /><path d="M691.5 276.7c13.6 13.7 17.6 37 17.6 37l27.9-29.2c14.4-15.1 14.4-39.4-0.1-54.6-15.2-14.6-39.2-14.3-54 0.6l-28 28c0 0.2 23.1 4.4 36.6 18.2zM389.5 406.8c7.2 19.1 10.8 54.9 10.8 54.9l210.2-220.2c15-15.7 15.6-40.1 2.2-56.5 0.6 0.5 1.1 1 1.7 1.5l-4.7-4.7c0.9 0.9 1.7 1.8 2.5 2.7-16.4-13.4-40.5-12.5-55.7 2.7L367.9 375.9s14.4 11.7 21.6 30.9zM223.5 637.7L255 411.2s9.5-20.8 23-31.8 32.2-13.2 32.2-13.2 1.5-48.3 1.5-54.4c0-6.2-13.5-29.8-41.8-29.8s-39.7 20.9-39.7 20.9-35.6 296.4-38.3 303.5c-2.7 7.1-36.5 43.5-36.5 43.5s-5.9 5.8-6.8 10.1c-0.8 4.4 2.6 11.9 2.6 11.9l50.8 50.4 17.8-17 3.7-67.6z" fill="#F7BD64" /><path d="M242.1 211.5c5 8.3 15.8 11.1 24.2 6.2 8.2-5.1 10.8-15.9 5.9-24.2l-51.6-85.9c-5-8.3-15.8-11.1-24.2-6.2-8.2 5.1-10.8 15.9-5.9 24.2l51.6 85.9zM1004.6 275.1c-5.3-8.1-16.1-10.5-24.3-5.5l-85 53.1c-8.2 5.2-10.8 15.9-5.7 24.2 5.3 8.1 16.1 10.5 24.3 5.5l85-53.1c8.2-5.1 10.8-15.9 5.7-24.2zM798 222.5c7.4 6.2 18.5 5.4 24.8-1.9l65.7-75.6c6.4-7.3 5.6-18.4-1.6-24.9-7.4-6.2-18.5-5.4-24.8 1.9l-65.7 75.6c-6.4 7.4-5.7 18.5 1.6 24.9zM127.8 282.7l-84.9-53c-8.2-5.1-19.1-2.7-24.3 5.5-5 8.3-2.4 19.1 5.7 24.2l84.9 53.1c8.2 5.1 19.1 2.7 24.3-5.5 5.1-8.3 2.5-19.1-5.7-24.3zM625.5 168.5c9.5 2 18.9-3.9 21.1-13.3l22.5-97.6c2.1-9.4-3.7-18.9-13.1-21.2-9.5-2-18.8 3.9-21.1 13.3l-22.5 97.6c-2.1 9.5 3.7 18.9 13.1 21.2zM410 153.9c0.7 9.7 9 17 18.7 16.5 9.7-0.8 16.9-9.2 16.2-18.9l-7-99.9c-0.7-9.7-9-17-18.7-16.5-9.7 0.8-16.9 9.2-16.2 18.9l7 99.9z" fill="#FFAE70" /></svg>