<?xml version="1.0" standalone="no"?><!DOCTYPE svg PUBLIC "-//W3C//DTD SVG 1.1//EN" "http://www.w3.org/Graphics/SVG/1.1/DTD/svg11.dtd"><svg class="icon" width="48px" height="48.00px" viewBox="0 0 1024 1024" version="1.1" xmlns="http://www.w3.org/2000/svg"><path d="M835 105H731c-33.1 0-59.9 26.8-60 59.9v387.3c0.1 1.5 0.2 2.9 0.2 4.3s0 2.9-0.1 4.3c1.9 31.4 28 56.3 59.9 56.3h104c33.1 0 60-26.9 60-60V165c0-33.1-26.9-60-60-60z m-52 192c-26.5 0-48-21.5-48-48s21.5-48 48-48 48 21.5 48 48-21.5 48-48 48z" fill="#59B954" /><path d="M671 552.2V164.9c0-33.1-26.9-59.9-60-59.9H253c-33.1 0-60 26.9-60 60v8c0 33.1 26.9 60 60 60h-31c-33.1 0-60 26.9-60 60v8c0 33.1 26.9 60 60 60h-33c-33.2 0-60 26.9-60 60v8c0 33.1 26.9 60 60 60-33.2 0-60 26.9-60 60v8c0 33.1 26.9 60 60 60h235.4c-12 13.7-21.9 27.2-28.1 39.8-31.6 64-44.5 117.5-31.4 182.6 13.1 65.1 85.4 110.4 104.4 52.4s19-82.8 60.4-146.3C571.1 681.9 654.1 600 654.1 600c10.3-10.7 16.2-24.6 17-39.2 0.1-1.4 0.1-2.8 0.1-4.3 0-1.4-0.1-2.8-0.2-4.3z" fill="#FFC56E" /></svg>