<?xml version="1.0" standalone="no"?><!DOCTYPE svg PUBLIC "-//W3C//DTD SVG 1.1//EN" "http://www.w3.org/Graphics/SVG/1.1/DTD/svg11.dtd"><svg class="icon" width="48px" height="48.00px" viewBox="0 0 1024 1024" version="1.1" xmlns="http://www.w3.org/2000/svg"><path d="M338.9 463.4v-0.2c-1.9-31.4-28-56.3-59.9-56.3H175c-33.1 0-60 26.9-60 60v392c0 33.1 26.9 60 60 60h104c33.1 0 59.9-26.8 60-59.9V471.8c-0.2-2.8-0.3-5.6-0.1-8.4zM227 823c-26.5 0-48-21.5-48-48s21.5-48 48-48 48 21.5 48 48-21.5 48-48 48z" fill="#59B954" /><path d="M881 475v-8c0-33.1-26.9-60-60-60H585.6c12-13.7 21.9-27.2 28.1-39.8 31.6-64 44.5-117.5 31.4-182.6-13.1-65.1-85.4-110.4-104.4-52.4s-19 82.8-60.4 146.3C438.9 342 355.9 424 355.9 424c-10.3 10.7-16.2 24.6-17 39.2V463.5c-0.1 2.7-0.1 5.5 0.1 8.3V859.2c0 33.1 26.9 59.9 60 59.9h358c33.1 0 60-26.9 60-60v-8c0-33.1-26.9-60-60-60h31c33.1 0 60-26.9 60-60v-8c0-33.1-26.9-60-60-60h33c33.2 0 60-26.9 60-60v-8c0-33.1-26.9-60-60-60 33.2-0.1 60-27 60-60.1z" fill="#FFC56E" /></svg>