<?xml version="1.0" standalone="no"?><!DOCTYPE svg PUBLIC "-//W3C//DTD SVG 1.1//EN" "http://www.w3.org/Graphics/SVG/1.1/DTD/svg11.dtd"><svg class="icon" width="48px" height="48.00px" viewBox="0 0 1024 1024" version="1.1" xmlns="http://www.w3.org/2000/svg"><path d="M512 0C229.2 0 0 229.2 0 512s229.2 512 512 512 512-229.2 512-512S794.8 0 512 0z m121.1 368.7c2.8-68.2 59-122.7 127.9-122.7 68.3 0 124.1 53.5 127.8 120.9 0.1 1.3 0.2 2.7 0.2 4.1 0 19.9-16.1 36-36 36s-36-16.1-36-36h-0.1c-1.6-29.5-26-53-55.9-53s-54.4 23.5-55.9 53c0 19.9-16.1 36-36 36s-36-16.1-36-36c-0.1-0.8-0.1-1.6 0-2.3z m-153.3 61.1l25.6-40.9c2.3-3.7 7.3-4.9 11-2.5 0.9 0.6 1.7 1.4 2.4 2.5l25.6 40.9c2.3 3.7 1.2 8.7-2.5 11-1.3 0.8-2.7 1.2-4.2 1.2h-51.1c-4.4 0-8-3.6-8-8 0-1.5 0.4-3 1.2-4.2z m-344.7-61.1c2.8-68.2 59-122.7 127.9-122.7 68.3 0 124.1 53.5 127.8 120.9 0.1 1.3 0.2 2.7 0.2 4.1 0 19.9-16.1 36-36 36s-36-16.1-36-36h-0.1c-1.6-29.5-26-53-55.9-53s-54.4 23.5-55.9 53c0 19.9-16.1 36-36 36s-36-16.1-36-36c-0.1-0.8-0.1-1.6 0-2.3zM60 568c-30.9 0-56-25.1-56-56s25.1-56 56-56 56 25.1 56 56-25.1 56-56 56z m706 292c-67.7-59.7-156.6-96-254-96h-0.3c97.3 0.1 186.1 36.4 253.7 96-0.2 0.1-0.3 0.3-0.5 0.4-2 1.7-3.9 3.4-5.9 5.1-0.1 0-0.2 0.1-0.3 0.2-2 1.7-4 3.4-6 5-0.2 0.2-0.3 0.3-0.5 0.4-2 1.6-4 3.1-6 4.7-0.2 0.2-0.5 0.4-0.8 0.6-1.9 1.5-3.9 3-5.9 4.5-0.3 0.2-0.7 0.5-1 0.7-2 1.5-4 2.9-6 4.3-0.3 0.2-0.7 0.5-1 0.7-2 1.4-4 2.8-6.1 4.2-0.2 0.2-0.5 0.4-0.8 0.6-2.2 1.4-4.3 2.8-6.5 4.2-0.1 0.1-0.3 0.2-0.4 0.3-2.2 1.4-4.4 2.7-6.6 4.1-0.1 0.1-0.3 0.2-0.4 0.3l-6.6 3.9c-0.3 0.2-0.6 0.3-0.9 0.5-2.1 1.3-4.3 2.5-6.5 3.7-0.4 0.2-0.7 0.4-1.1 0.6-2.1 1.2-4.3 2.4-6.5 3.5-0.4 0.2-0.7 0.4-1.1 0.6-2.2 1.2-4.5 2.3-6.7 3.4-0.3 0.2-0.6 0.3-0.9 0.5-2.3 1.1-4.7 2.2-7 3.3-0.2 0-0.3 0.1-0.5 0.2-2.4 1.1-4.8 2.1-7.2 3.2-0.1 0.1-0.2 0.1-0.3 0.2-2.4 1.1-4.8 2.1-7.2 3.1-0.3 0.1-0.6 0.3-0.9 0.4-2.3 1-4.6 1.9-7 2.8-0.3 0.1-0.7 0.3-1.1 0.4-2.3 0.9-4.7 1.8-7 2.6-0.4 0.1-0.8 0.3-1.2 0.4-2.3 0.9-4.7 1.7-7.1 2.5-0.4 0.1-0.7 0.2-1.1 0.3-2.4 0.8-4.9 1.6-7.4 2.4-0.2 0.1-0.4 0.1-0.6 0.2-2.6 0.8-5.1 1.6-7.7 2.3-0.1 0-0.2 0.1-0.3 0.1-2.5 0.7-5.1 1.4-7.7 2.1-0.3 0-0.6 0.1-0.9 0.2-2.5 0.7-5 1.3-7.5 1.9l-1.2 0.3c-2.4 0.6-4.9 1.2-7.4 1.7-0.5 0.1-0.9 0.2-1.3 0.3l-7.5 1.5c-0.3 0.1-0.7 0.1-1.1 0.2-2.6 0.5-5.2 1-7.8 1.4-0.2 0-0.5 0.1-0.7 0.1l-8.1 1.2h-0.2c-2.7 0.4-5.5 0.8-8.2 1.1-0.3 0-0.6 0.1-0.9 0.1-2.6 0.3-5.3 0.5-7.9 0.8-0.4 0-0.8 0.1-1.2 0.1l-7.8 0.6c-0.4 0-0.9 0.1-1.3 0.1-2.6 0.2-5.2 0.4-7.8 0.5-0.4 0.1-0.8 0.1-1.2 0.1l-8.1 0.3h-0.8c-2.8 0.1-5.7 0.1-8.5 0.1s-5.7 0-8.5-0.1h-0.8l-8.1-0.3c-0.4-0.1-0.8-0.1-1.2-0.1-2.6-0.2-5.2-0.3-7.8-0.5-0.4 0-0.9-0.1-1.3-0.1l-7.8-0.6c-0.4 0-0.8-0.1-1.2-0.1-2.7-0.2-5.3-0.5-7.9-0.8-0.3 0-0.6-0.1-0.9-0.1-2.8-0.4-5.5-0.7-8.2-1.1h-0.2c-2.7-0.3-5.4-0.8-8.1-1.2-0.2 0-0.5-0.1-0.7-0.1-2.6-0.5-5.2-0.9-7.8-1.4-0.3-0.1-0.7-0.1-1.1-0.2l-7.5-1.5c-0.5-0.1-0.9-0.2-1.3-0.3-2.5-0.6-4.9-1.1-7.4-1.7l-1.2-0.3c-2.5-0.6-5-1.3-7.5-1.9-0.3 0-0.6-0.1-0.9-0.2-2.6-0.7-5.1-1.4-7.7-2.1-0.1 0-0.2-0.1-0.3-0.1-2.6-0.8-5.2-1.5-7.7-2.3-0.2-0.1-0.4-0.1-0.6-0.2-2.5-0.8-4.9-1.6-7.4-2.4-0.4-0.1-0.7-0.2-1.1-0.3-2.4-0.8-4.7-1.7-7.1-2.5-0.4-0.1-0.8-0.3-1.2-0.4-2.3-0.8-4.7-1.7-7-2.6-0.3-0.1-0.7-0.3-1.1-0.4-2.3-0.9-4.7-1.8-7-2.8-0.3-0.1-0.6-0.3-0.9-0.4-2.4-1-4.8-2.1-7.2-3.1-0.1-0.1-0.2-0.1-0.3-0.2-2.4-1-4.8-2.1-7.2-3.2-0.2 0-0.3-0.1-0.5-0.2-2.4-1-4.7-2.2-7-3.3-0.3-0.2-0.6-0.3-0.9-0.5-2.3-1.1-4.5-2.3-6.7-3.4-0.4-0.2-0.7-0.4-1.1-0.6-2.2-1.2-4.3-2.3-6.5-3.5-0.4-0.2-0.7-0.4-1.1-0.6-2.2-1.2-4.3-2.5-6.5-3.7-0.3-0.2-0.6-0.3-0.9-0.5-2.2-1.2-4.4-2.6-6.6-3.9-0.1-0.1-0.3-0.2-0.4-0.3-2.2-1.3-4.4-2.7-6.6-4.1-0.1-0.1-0.3-0.2-0.4-0.3-2.2-1.4-4.4-2.8-6.5-4.2-0.2-0.2-0.5-0.4-0.8-0.6-2-1.4-4.1-2.8-6.1-4.2-0.3-0.2-0.7-0.5-1-0.7-2-1.4-4-2.8-6-4.3-0.3-0.2-0.7-0.5-1-0.7-2-1.5-3.9-3-5.9-4.5-0.2-0.2-0.5-0.4-0.8-0.6-2-1.5-4-3.1-6-4.7-0.2-0.2-0.3-0.3-0.5-0.4-2-1.7-4-3.3-6-5-0.1 0-0.2-0.1-0.3-0.2-2-1.7-4-3.4-5.9-5.1-0.2-0.1-0.3-0.3-0.5-0.4-79.7-70.4-121-158-130-288s768-114.7 768 0-50.3 217.6-130 288z m198-292c-30.9 0-56-25.1-56-56s25.1-56 56-56 56 25.1 56 56-25.1 56-56 56z" fill="#FCD869" /><path d="M128 572c9 130 50.3 217.6 130 288 67.7-59.7 156-96 253.4-96h0.6c97.4 0 186.3 36.3 254 96 79.7-70.4 130-173.3 130-288s-777-130-768 0z m705.2 37.8c-1.8 0-3.5-0.2-5.2-0.5C722.6 588.4 617.3 578 512 578s-210.6 10.4-315.9 31.3c-14.5 2.9-28.7-6.6-31.5-21.1-0.3-1.7-0.5-3.5-0.5-5.2 0-19.6 13.4-36.6 32.5-41.2C301.7 516.6 406.8 504 512 504s210.3 12.6 315.5 37.8c19 4.6 32.5 21.6 32.5 41.2 0 14.8-12 26.8-26.8 26.8z" fill="#302323" /><path d="M258 860c0.2 0.1 0.3 0.3 0.5 0.4 1.9 1.7 3.9 3.4 5.9 5.1 0.1 0.1 0.2 0.2 0.3 0.2 2 1.7 4 3.3 6 5 0.2 0.1 0.3 0.2 0.5 0.4 2 1.6 4 3.2 6 4.7 0.3 0.2 0.6 0.4 0.8 0.6 2 1.5 3.9 3 5.9 4.5 0.3 0.2 0.7 0.5 1 0.7 2 1.5 4 2.9 6 4.3 0.3 0.2 0.7 0.5 1 0.7 2 1.4 4.1 2.8 6.1 4.2 0.3 0.2 0.6 0.4 0.8 0.6 2.1 1.4 4.3 2.8 6.5 4.2 0.1 0.1 0.3 0.2 0.4 0.3 2.2 1.4 4.4 2.8 6.6 4.1 0.1 0.1 0.3 0.2 0.4 0.3 2.2 1.3 4.4 2.7 6.6 3.9 0.3 0.2 0.6 0.3 0.9 0.5 2.2 1.2 4.3 2.5 6.5 3.7 0.4 0.2 0.7 0.4 1.1 0.6 2.2 1.2 4.3 2.3 6.5 3.5 0.4 0.2 0.7 0.4 1.1 0.6 2.2 1.1 4.4 2.3 6.7 3.4 0.3 0.2 0.6 0.3 0.9 0.5 2.3 1.1 4.6 2.3 7 3.3 0.2 0.1 0.3 0.2 0.5 0.2 2.4 1.1 4.8 2.2 7.2 3.2 0.1 0.1 0.2 0.1 0.3 0.2 2.4 1 4.8 2.1 7.2 3.1 0.3 0.1 0.6 0.3 0.9 0.4 2.3 1 4.7 1.9 7 2.8 0.4 0.1 0.8 0.3 1.1 0.4 2.3 0.9 4.7 1.8 7 2.6 0.4 0.1 0.8 0.3 1.2 0.4 2.4 0.8 4.7 1.7 7.1 2.5 0.4 0.1 0.7 0.2 1.1 0.3 2.5 0.8 4.9 1.6 7.4 2.4 0.2 0.1 0.4 0.1 0.6 0.2 2.5 0.8 5.1 1.5 7.7 2.3 0.1 0 0.2 0.1 0.3 0.1 2.6 0.7 5.1 1.4 7.7 2.1 0.3 0.1 0.6 0.2 0.9 0.2 2.5 0.6 5 1.3 7.5 1.9l1.2 0.3c2.5 0.6 4.9 1.1 7.4 1.7 0.4 0.1 0.8 0.2 1.3 0.3l7.5 1.5c0.4 0.1 0.8 0.1 1.1 0.2 2.6 0.5 5.2 0.9 7.8 1.4 0.2 0 0.5 0.1 0.7 0.1 2.7 0.4 5.4 0.9 8.1 1.2h0.2c2.7 0.4 5.4 0.7 8.2 1.1 0.3 0 0.6 0.1 0.9 0.1 2.6 0.3 5.2 0.6 7.9 0.8 0.4 0 0.8 0.1 1.2 0.1l7.8 0.6c0.4 0 0.9 0.1 1.3 0.1 2.6 0.2 5.2 0.3 7.8 0.5 0.4 0 0.8 0 1.2 0.1l8.1 0.3h0.8c2.8 0.1 5.7 0.1 8.5 0.1s5.7 0 8.5-0.1h0.8l8.1-0.3c0.4 0 0.8 0 1.2-0.1 2.6-0.1 5.2-0.3 7.8-0.5 0.4 0 0.9-0.1 1.3-0.1l7.8-0.6c0.4 0 0.8-0.1 1.2-0.1 2.6-0.3 5.3-0.5 7.9-0.8 0.3 0 0.6-0.1 0.9-0.1 2.7-0.3 5.5-0.7 8.2-1.1h0.2l8.1-1.2c0.2 0 0.5-0.1 0.7-0.1 2.6-0.4 5.2-0.9 7.8-1.4 0.4-0.1 0.8-0.1 1.1-0.2l7.5-1.5c0.4-0.1 0.8-0.2 1.3-0.3 2.5-0.5 5-1.1 7.4-1.7l1.2-0.3c2.5-0.6 5-1.2 7.5-1.9 0.3-0.1 0.6-0.2 0.9-0.2 2.6-0.7 5.2-1.4 7.7-2.1 0.1 0 0.2-0.1 0.3-0.1 2.6-0.7 5.1-1.5 7.7-2.3 0.2-0.1 0.4-0.1 0.6-0.2 2.5-0.8 5-1.6 7.4-2.4 0.4-0.1 0.7-0.2 1.1-0.3 2.4-0.8 4.8-1.6 7.1-2.5 0.4-0.1 0.8-0.3 1.2-0.4 2.3-0.8 4.7-1.7 7-2.6 0.4-0.1 0.8-0.3 1.1-0.4 2.4-0.9 4.7-1.8 7-2.8 0.3-0.1 0.6-0.3 0.9-0.4 2.4-1 4.8-2 7.2-3.1 0.1-0.1 0.2-0.1 0.3-0.2 2.4-1.1 4.8-2.1 7.2-3.2 0.2-0.1 0.3-0.2 0.5-0.2 2.3-1.1 4.7-2.2 7-3.3 0.3-0.2 0.6-0.3 0.9-0.5 2.2-1.1 4.5-2.2 6.7-3.4 0.4-0.2 0.7-0.4 1.1-0.6 2.2-1.1 4.4-2.3 6.5-3.5 0.4-0.2 0.7-0.4 1.1-0.6 2.2-1.2 4.4-2.4 6.5-3.7 0.3-0.2 0.6-0.3 0.9-0.5l6.6-3.9c0.1-0.1 0.3-0.2 0.4-0.3 2.2-1.4 4.4-2.7 6.6-4.1 0.1-0.1 0.3-0.2 0.4-0.3 2.2-1.4 4.3-2.8 6.5-4.2 0.3-0.2 0.6-0.4 0.8-0.6 2.1-1.4 4.1-2.8 6.1-4.2 0.3-0.2 0.7-0.5 1-0.7 2-1.4 4-2.8 6-4.3 0.3-0.2 0.7-0.5 1-0.7 2-1.5 4-3 5.9-4.5 0.3-0.2 0.6-0.4 0.8-0.6 2-1.6 4-3.1 6-4.7 0.2-0.1 0.3-0.2 0.5-0.4 2-1.6 4-3.3 6-5 0.1-0.1 0.2-0.2 0.3-0.2 2-1.7 3.9-3.4 5.9-5.1 0.2-0.1 0.3-0.3 0.5-0.4-67.6-59.6-156.4-95.9-253.7-96h-0.3c-97.4 0-185.7 36.3-253.4 96z" fill="#EF5267" /><path d="M486.6 442h51.1c1.5 0 2.9-0.4 4.2-1.2 3.7-2.3 4.8-7.3 2.5-11l-25.6-40.9c-0.7-1.1-1.5-1.9-2.4-2.5-3.7-2.4-8.7-1.2-11 2.5l-25.6 40.9c-0.8 1.2-1.2 2.7-1.2 4.2 0 4.4 3.6 8 8 8z" fill="#FCD869" /><path d="M486.6 442h51.1c1.5 0 2.9-0.4 4.2-1.2 3.7-2.3 4.8-7.3 2.5-11l-25.6-40.9c-0.7-1.1-1.5-1.9-2.4-2.5-3.7-2.4-8.7-1.2-11 2.5l-25.6 40.9c-0.8 1.2-1.2 2.7-1.2 4.2 0 4.4 3.6 8 8 8z" fill="#F1672F" /><path d="M827.5 541.8C722.3 516.6 617.2 504 512 504s-210.3 12.6-315.5 37.8c-19 4.6-32.5 21.6-32.5 41.2 0 1.8 0.2 3.5 0.5 5.2 2.9 14.5 17 24 31.5 21.1C301.4 588.4 406.7 578 512 578s210.6 10.4 315.9 31.3c1.7 0.3 3.5 0.5 5.2 0.5 14.8 0 26.8-12 26.8-26.8 0.1-19.6-13.3-36.6-32.4-41.2z" fill="#FFFFFF" /><path d="M60 512m-56 0a56 56 0 1 0 112 0 56 56 0 1 0-112 0Z" fill="#FCD869" /><path d="M60 512m-56 0a56 56 0 1 0 112 0 56 56 0 1 0-112 0Z" fill="#ED3434" /><path d="M964 512m-56 0a56 56 0 1 0 112 0 56 56 0 1 0-112 0Z" fill="#FCD869" /><path d="M964 512m-56 0a56 56 0 1 0 112 0 56 56 0 1 0-112 0Z" fill="#ED3434" /><path d="M171 407c19.9 0 36-16.1 36-36 1.6-29.5 26-53 55.9-53s54.4 23.5 55.9 53h0.1c0 19.9 16.1 36 36 36s36-16.1 36-36c0-1.4-0.1-2.7-0.2-4.1C387.1 299.5 331.3 246 263 246c-68.9 0-125.1 54.4-127.9 122.7 0 0.8-0.1 1.6-0.1 2.3 0 19.9 16.1 36 36 36zM669 407c19.9 0 36-16.1 36-36 1.6-29.5 26-53 55.9-53s54.4 23.5 55.9 53h0.1c0 19.9 16.1 36 36 36s36-16.1 36-36c0-1.4-0.1-2.7-0.2-4.1C885.1 299.5 829.3 246 761 246c-68.9 0-125.1 54.4-127.9 122.7 0 0.8-0.1 1.6-0.1 2.3 0 19.9 16.1 36 36 36z" fill="#302323" /></svg>