<?xml version="1.0" standalone="no"?><!DOCTYPE svg PUBLIC "-//W3C//DTD SVG 1.1//EN" "http://www.w3.org/Graphics/SVG/1.1/DTD/svg11.dtd"><svg class="icon" width="48px" height="47.86px" viewBox="0 0 1027 1024" version="1.1" xmlns="http://www.w3.org/2000/svg"><path d="M648.9 1004.4c-10.9 3-22 5.7-33.1 8 11.4-2.3 22.6-5 33.6-8.1-23.1-52.6-75.7-89.4-136.9-89.4-11.5 0-22.8 1.3-33.5 3.8 10.6-2.4 21.7-3.7 33-3.7 61.2 0 113.8 36.8 136.9 89.4z" fill="#FCD869" /><path d="M512 0C229.2 0 0 229.2 0 512s229.2 512 512 512 512-229.2 512-512S794.8 0 512 0z m-32.8 558.6l25.6-40.9c2.3-3.7 7.3-4.9 11-2.5 0.9 0.6 1.7 1.4 2.4 2.5l25.6 40.9c2.3 3.7 1.2 8.7-2.5 11-1.3 0.8-2.7 1.2-4.2 1.2H486c-4.4 0-8-3.6-8-8 0-1.5 0.4-3 1.2-4.2zM157 166.1L229.1 94c9.4-9.4 24.6-9.4 33.9 0 9.4 9.4 9.4 24.6 0 33.9L190.9 200c-9.4 9.4-24.6 9.4-33.9 0-9.4-9.3-9.4-24.5 0-33.9zM292 563c-66.3 0-120-81.7-120-182.5S225.7 198 292 198s120 81.7 120 182.5S358.3 563 292 563z m371 200.5c0 0.1 0 0.1-0.4 0.2v237c-0.4 0.1-0.7 0.2-1.1 0.3-2.2 0.7-4.5 1.3-6.7 2-0.7 0.1-1.3 0.3-1.9 0.5-2.6 0.7-5.2 1.5-7.9 2.2-0.5 0.1-1 0.3-1.5 0.4l-6.9 1.8c-0.6 0.2-1.3 0.3-1.9 0.5-2.7 0.6-5.4 1.3-8.1 1.9-0.5 0.1-0.9 0.2-1.4 0.3-2.3 0.5-4.7 1-7 1.5-0.7 0.1-1.3 0.3-2 0.4-2.7 0.5-5.5 1.1-8.2 1.6-0.4 0-0.9 0.1-1.3 0.2-2.4 0.4-4.8 0.9-7.2 1.3-0.7 0.2-1.4 0.3-2.1 0.4-2.8 0.4-5.5 0.9-8.3 1.3-0.3 0.1-0.7 0.1-1.1 0.2-2.4 0.4-4.9 0.8-7.4 1.1l-2.1 0.3c-2.8 0.3-5.6 0.7-8.4 1-0.3 0-0.6 0.1-0.9 0.1-2.6 0.3-5.1 0.6-7.7 0.8-0.8 0.1-1.5 0.1-2.2 0.2-2.8 0.2-5.7 0.5-8.5 0.7h-0.7c-2.7 0.2-5.3 0.3-8 0.5-0.7 0-1.5 0.1-2.2 0.1-2.8 0.1-5.7 0.3-8.6 0.4h-0.4c-2.7 0.1-5.5 0.1-8.3 0.2h-4.3c-2.2 0-4.4 0.1-6.6 0.1h-0.1-0.1c-3.2 0-6.4 0-9.7-0.1h-1c-2.5 0-5-0.1-7.5-0.2h-1.1c-2.8-0.1-5.6-0.2-8.4-0.4-0.8 0-1.5-0.1-2.2-0.1-2.3-0.2-4.7-0.3-7-0.5-0.5 0-1.1-0.1-1.6-0.1-2.8-0.2-5.5-0.4-8.3-0.7-0.7-0.1-1.3-0.1-2-0.2-0.5 0-1-0.1-1.6-0.2-1.5-0.1-3-0.3-4.6-0.5-0.2 0-0.5 0-0.7-0.1-0.6-0.1-1.3-0.1-1.9-0.2-2.3-0.3-4.7-0.5-7.1-0.9-0.4-0.1-0.8-0.1-1.2-0.2-0.6 0-1-0.1-1.6-0.2-0.4-0.1-0.7-0.1-1.1-0.2-3.7-0.5-7.4-1-11.1-1.6-0.6-0.1-1.2-0.2-1.7-0.3-7.4-1.2-14.8-2.5-22.1-4-11.2-2.2-22.2-4.9-33.1-7.9v-0.1c0-0.1 0.1-0.1 0.1-0.2l-1.2-0.3c-0.4-0.1-0.9-0.3-1.4-0.4-2.6-0.8-5.2-1.5-7.8-2.3-0.3-0.1-0.5-0.1-0.7-0.2V763.5 762.3c0-82.5 66.9-149.3 149.5-149.3S663 679.9 663 762.4v1.1zM732 563c-66.3 0-120-81.7-120-182.5S665.7 198 732 198s120 81.7 120 182.5S798.3 563 732 563z m130-363c-9.4 9.4-24.6 9.4-33.9 0L756 127.9c-9.4-9.4-9.4-24.6 0-33.9 9.4-9.4 24.6-9.4 33.9 0l72.1 72.1c9.4 9.4 9.4 24.6 0 33.9z" fill="#FCD869" /><path d="M444.1 1018.6c0.6 0.1 1 0.2 1.6 0.2-0.9-0.1-1.8-0.2-2.7-0.4 0.4 0.1 0.7 0.1 1.1 0.2zM454 1019.8c0.6 0.1 1.3 0.1 1.9 0.2 0.2 0 0.5 0 0.7 0.1-3.2-0.3-6.4-0.7-9.7-1.1 2.4 0.3 4.8 0.5 7.1 0.8zM513.5 613C430.9 613 364 679.8 364 762.3v238.8c0.2 0.1 0.4 0.1 0.7 0.2 2.6 0.8 5.2 1.5 7.8 2.3 0.5 0.1 1 0.3 1.4 0.4l1.2 0.3c18.9-42.8 57.2-75.1 103.9-85.6 10.8-2.5 22-3.8 33.5-3.8 61.2 0 113.8 36.8 136.9 89.4-11.1 3.1-22.3 5.8-33.6 8.1-30.6 6.3-62.1 9.9-94.4 10.5h1.3c2.8-0.1 5.6-0.1 8.3-0.2h0.4c2.9-0.1 5.8-0.3 8.6-0.4 0.7 0 1.5-0.1 2.2-0.1 2.7-0.2 5.3-0.3 8-0.5h0.7c2.8-0.2 5.7-0.5 8.5-0.7 0.7-0.1 1.4-0.1 2.2-0.2 2.6-0.2 5.1-0.5 7.7-0.8 0.3 0 0.6-0.1 0.9-0.1 2.8-0.3 5.6-0.7 8.4-1l2.1-0.3c2.5-0.3 5-0.7 7.4-1.1 0.4-0.1 0.8-0.1 1.1-0.2 2.8-0.4 5.5-0.9 8.3-1.3 0.7-0.1 1.4-0.2 2.1-0.4 2.4-0.4 4.8-0.9 7.2-1.3 0.4-0.1 0.9-0.2 1.3-0.2 2.7-0.5 5.5-1.1 8.2-1.6 0.7-0.1 1.3-0.3 2-0.4 2.3-0.5 4.7-1 7-1.5 0.5-0.1 0.9-0.2 1.4-0.3 2.7-0.6 5.4-1.3 8.1-1.9 0.6-0.2 1.3-0.3 1.9-0.5l6.9-1.8c0.5-0.1 1-0.3 1.5-0.4 2.7-0.7 5.3-1.5 7.9-2.2 0.6-0.2 1.2-0.4 1.9-0.5 2.2-0.7 4.5-1.3 6.7-2 0.4-0.1 0.7-0.2 1.1-0.3v-237l0.4-0.1v-0.1-1.1c-0.1-82.5-67-149.4-149.6-149.4zM462.7 1020.7c0.7 0.1 1.3 0.1 2 0.2 2.8 0.3 5.5 0.5 8.3 0.7 0.5 0 1.1 0.1 1.6 0.1 2.3 0.2 4.7 0.3 7 0.5 0.7 0 1.4 0.1 2.2 0.1 2.8 0.2 5.6 0.3 8.4 0.4h1.1c2.5 0.1 5 0.2 7.5 0.2h1c-13.7-0.3-27.3-1-40.7-2.4 0.6 0.1 1.1 0.2 1.6 0.2zM511.7 1023c2.2 0 4.4 0 6.6-0.1-2.2 0.1-4.4 0.1-6.6 0.1-0.1 0 0 0 0 0z" fill="#302323" /><path d="M486 570.8h51.1c1.5 0 2.9-0.4 4.2-1.2 3.7-2.3 4.8-7.3 2.5-11l-25.6-40.9c-0.7-1.1-1.5-1.9-2.4-2.5-3.7-2.4-8.7-1.2-11 2.5l-25.6 40.9c-0.8 1.2-1.2 2.7-1.2 4.2 0 4.4 3.6 8 8 8z" fill="#FCD869" /><path d="M486 570.8h51.1c1.5 0 2.9-0.4 4.2-1.2 3.7-2.3 4.8-7.3 2.5-11l-25.6-40.9c-0.7-1.1-1.5-1.9-2.4-2.5-3.7-2.4-8.7-1.2-11 2.5l-25.6 40.9c-0.8 1.2-1.2 2.7-1.2 4.2 0 4.4 3.6 8 8 8z" fill="#F1672F" /><path d="M190.9 200l72.1-72.1c9.4-9.4 9.4-24.6 0-33.9-9.4-9.4-24.6-9.4-33.9 0L157 166.1c-9.4 9.4-9.4 24.6 0 33.9 9.3 9.4 24.5 9.4 33.9 0zM789.9 94c-9.4-9.4-24.6-9.4-33.9 0-9.4 9.4-9.4 24.6 0 33.9l72.1 72.1c9.4 9.4 24.6 9.4 33.9 0s9.4-24.6 0-33.9L789.9 94z" fill="#302323" /><path d="M292 198c-66.3 0-120 81.7-120 182.5S225.7 563 292 563s120-81.7 120-182.5S358.3 198 292 198z m1 263c-44.2 0-80-35.8-80-80s35.8-80 80-80 80 35.8 80 80-35.8 80-80 80z" fill="#FFFFFF" /><path d="M293 381m-80 0a80 80 0 1 0 160 0 80 80 0 1 0-160 0Z" fill="#302323" /><path d="M732 198c-66.3 0-120 81.7-120 182.5S665.7 563 732 563s120-81.7 120-182.5S798.3 198 732 198z m1 263c-44.2 0-80-35.8-80-80s35.8-80 80-80 80 35.8 80 80-35.8 80-80 80z" fill="#FFFFFF" /><path d="M733 381m-80 0a80 80 0 1 0 160 0 80 80 0 1 0-160 0Z" fill="#302323" /><path d="M648.9 1004.4C625.8 951.8 573.2 915 512 915c-11.4 0-22.4 1.3-33 3.7-46.7 10.5-85 42.9-103.9 85.6 0 0.1-0.1 0.1-0.1 0.2v0.1c10.9 3 21.9 5.7 33.1 7.9 7.3 1.5 14.7 2.8 22.1 4 0.6 0.1 1.2 0.2 1.7 0.3 3.7 0.6 7.4 1.1 11.1 1.6 0.9 0.1 1.8 0.2 2.7 0.4 0.4 0.1 0.8 0.1 1.2 0.2 3.2 0.4 6.4 0.8 9.7 1.1 1.5 0.2 3 0.3 4.6 0.5 13.4 1.3 27 2.1 40.7 2.4 3.2 0.1 6.4 0.1 9.7 0.1h0.1c2.2 0 4.5 0 6.7-0.1h3c32.3-0.6 63.9-4.2 94.4-10.5 11.1-2.4 22.2-5.1 33.1-8.1z" fill="#EF5267" /></svg>