<?xml version="1.0" standalone="no"?><!DOCTYPE svg PUBLIC "-//W3C//DTD SVG 1.1//EN" "http://www.w3.org/Graphics/SVG/1.1/DTD/svg11.dtd"><svg class="icon" width="48px" height="48.00px" viewBox="0 0 1024 1024" version="1.1" xmlns="http://www.w3.org/2000/svg"><path d="M512 0C229.2 0 0 229.2 0 512s229.2 512 512 512 512-229.2 512-512S794.8 0 512 0z m-32.8 638.6l25.6-40.9c2.3-3.7 7.3-4.9 11-2.5 0.9 0.6 1.7 1.4 2.4 2.5l25.6 40.9c2.3 3.7 1.2 8.7-2.5 11-1.3 0.8-2.7 1.2-4.2 1.2H486c-4.4 0-8-3.6-8-8 0-1.5 0.4-3 1.2-4.2zM188 720.5c-17.3 10-38.7 10-56 0-17.3-10-28-28.5-28-48.5s10.7-38.5 28-48.5 38.7-10 56 0c17.3 10 28 28.5 28 48.5s-10.7 38.5-28 48.5zM318 603c-38.7 0-70-31.3-70-70 0-12.4 3.2-24.1 8.9-34.2l-102.6-33.3c-14.7-4.8-22.8-20.6-18-35.3 4.8-14.7 20.6-22.8 35.3-18l160.8 52.2c4.9 1 9.7 2.6 14.2 4.6l76.1 24.7c14.7 4.8 22.8 20.6 18 35.3-4.8 14.7-20.6 22.8-35.3 18l-17.9-5.8C383.4 576 353.9 603 318 603z m317.7 170.5c-7.2 9-19.9 11.6-30.1 6-31.2-17-62.4-25.5-93.6-25.5-31.2 0-62.4 8.5-93.6 25.6-11.6 6.3-26.1 2.1-32.4-9.5-5.6-10.2-3-22.8 6-30.1 32.6-26.1 60-40 120-40s92.6 18.1 120 40c10.3 8.2 12 23.3 3.7 33.5zM709.1 603c-35.9 0-65.4-27-69.5-61.7l-17.9 5.8c-14.7 4.8-30.5-3.3-35.3-18-4.8-14.7 3.3-30.5 18-35.3l76.1-24.7c4.5-2 9.3-3.6 14.2-4.6l160.8-52.2c14.7-4.8 30.5 3.3 35.3 18 4.8 14.7-3.3 30.5-18 35.3l-102.6 33.3c5.7 10.1 8.9 21.8 8.9 34.2 0 38.6-31.4 69.9-70 69.9zM864 728c-30.9 0-56-25.1-56-56s25.1-56 56-56 56 25.1 56 56-25.1 56-56 56z" fill="#F04134" /><path d="M188 623.5c-17.3-10-38.7-10-56 0-17.3 10-28 28.5-28 48.5s10.7 38.5 28 48.5 38.7 10 56 0c17.3-10 28-28.5 28-48.5s-10.7-38.5-28-48.5z" fill="#ED3434" /><path d="M864 672m-56 0a56 56 0 1 0 112 0 56 56 0 1 0-112 0Z" fill="#ED3434" /><path d="M486 650.8h51.1c1.5 0 2.9-0.4 4.2-1.2 3.7-2.3 4.8-7.3 2.5-11l-25.6-40.9c-0.7-1.1-1.5-1.9-2.4-2.5-3.7-2.4-8.7-1.2-11 2.5l-25.6 40.9c-0.8 1.2-1.2 2.7-1.2 4.2 0 4.4 3.6 8 8 8z" fill="#F04134" /><path d="M486 650.8h51.1c1.5 0 2.9-0.4 4.2-1.2 3.7-2.3 4.8-7.3 2.5-11l-25.6-40.9c-0.7-1.1-1.5-1.9-2.4-2.5-3.7-2.4-8.7-1.2-11 2.5l-25.6 40.9c-0.8 1.2-1.2 2.7-1.2 4.2 0 4.4 3.6 8 8 8z" fill="#FF7A44" /><path d="M405.4 547.1c14.7 4.8 30.5-3.3 35.3-18 4.8-14.7-3.3-30.5-18-35.3l-76.1-24.7c-4.5-2-9.3-3.6-14.2-4.6l-160.8-52.2c-14.7-4.8-30.5 3.3-35.3 18-4.8 14.7 3.3 30.5 18 35.3l102.6 33.3c-5.7 10.1-8.9 21.8-8.9 34.2 0 38.7 31.3 70 70 70 35.9 0 65.4-27 69.5-61.7l17.9 5.7zM872.7 465.5c14.7-4.8 22.8-20.6 18-35.3-4.8-14.7-20.6-22.8-35.3-18l-160.8 52.2c-4.9 1-9.7 2.6-14.2 4.6l-76.1 24.7c-14.7 4.8-22.8 20.6-18 35.3 4.8 14.7 20.6 22.8 35.3 18l17.9-5.8c4.1 34.8 33.7 61.7 69.5 61.7 38.7 0 70-31.3 70-70 0-12.4-3.2-24.1-8.9-34.2l102.6-33.2zM632 740c-27.4-21.9-60-40-120-40s-87.4 13.9-120 40c-9 7.2-11.6 19.9-6 30.1 6.3 11.6 20.8 15.8 32.4 9.5 31.2-17.1 62.4-25.6 93.6-25.6 31.2 0 62.4 8.5 93.6 25.6 10.2 5.6 22.8 3 30.1-6 8.3-10.3 6.6-25.4-3.7-33.6z" fill="#302323" /></svg>