<?xml version="1.0" encoding="utf-8"?>
<!-- Generator: Adobe Illustrator 21.0.0, SVG Export Plug-In . SVG Version: 6.00 Build 0)  -->
<svg version="1.1" id="图层_1" xmlns="http://www.w3.org/2000/svg" xmlns:xlink="http://www.w3.org/1999/xlink" x="0px" y="0px"
	 viewBox="0 0 48 48" style="enable-background:new 0 0 48 48;" xml:space="preserve">
<style type="text/css">
	.st0{fill:#F04134;}
</style>
<path class="st0" d="M33.3,4.6c-3.6,0-6.9,1.4-9.3,4c-2.4-2.5-5.8-4-9.3-4c-7.2,0-13,5.9-13,13c0,3.3,1.2,6.5,3.5,8.9
	c0,0,0.1,0.1,0.1,0.1l0.2,0.2L22,42.6c0.5,0.5,1.2,0.8,2,0.8c0.8,0,1.5-0.3,2.1-0.8c0.5-0.5,13.5-12.8,16.4-15.8l0.1-0.1
	c2.4-2.4,3.6-5.7,3.6-9.1C46.3,10.4,40.5,4.6,33.3,4.6z M14.7,11.1c-3.7,0-6.6,3-6.6,6.7c0,0.6-0.5,1-1,1s-1-0.5-1-1
	c0-4.8,3.9-8.7,8.6-8.7c0.6,0,1,0.5,1,1C15.7,10.6,15.3,11.1,14.7,11.1z"/>
</svg>
